ffmpeg started on 2025-05-29 at 16:14:17
Report written to "D:\Convert\FFMetrics\reports\ssim_report-6.txt"
Log level: 32
Command line:
ffmpeg -hide_banner -nostdin -i "G:\\\xc0\xed\xe8\xec\xe5\\\xce\xed\xe3\xee\xe8\xed\xe3\xe8\\!_36_\xce\xf1\xe5\xed\xfc_2024\\JamClub\\\xd2\xfb - \xe3\xee\xf0\xed\xe8\xf7\xed\xe0\xff\\JamClub_Kimi_wa_Meido_sama_01_1080p_HEVC.mkv" -i "G:\\\xc0\xed\xe8\xec\xe5\\\xce\xed\xe3\xee\xe8\xed\xe3\xe8\\!_36_\xce\xf1\xe5\xed\xfc_2024\\JamClub\\\xd2\xfb - \xe3\xee\xf0\xed\xe8\xf7\xed\xe0\xff\\JamClub_Kimi_wa_Meido_sama_01_1080p.mp4" -lavfi "[0:v]settb=AVTB,setpts=PTS-STARTPTS,format=pix_fmts=yuv420p10,fps=24000/1001,scale=1920:1080:flags=bicubic[main];[1:v]settb=AVTB,setpts=PTS-STARTPTS,format=pix_fmts=yuv420p,fps=24000/1001,scale=1920:1080:flags=bicubic[ref];[main][ref]ssim=eof_action=endall:stats_file='D\\:/Convert/FFMetrics/logs/ssim_logfile-6.txt'" -f null -
Input #0, matroska,webm, from 'G:\Аниме\Онгоинги\!_36_Осень_2024\JamClub\Ты - горничная\JamClub_Kimi_wa_Meido_sama_01_1080p_HEVC.mkv':
  Metadata:
    COMPATIBLE_BRANDS: isomiso2avc1mp41
    MAJOR_BRAND     : isom
    MINOR_VERSION   : 512
    ENCODER         : Lavf61.7.100
  Duration: 00:23:22.24, start: -0.021000, bitrate: 1916 kb/s
  Stream #0:0: Video: hevc (Main 10), yuv420p10le(tv, bt709, progressive), 1920x1080 [SAR 1:1 DAR 16:9], 23.98 fps, 23.98 tbr, 1k tbn (default)
      Metadata:
        HANDLER_NAME    : VideoHandler
        VENDOR_ID       : [0][0][0][0]
        ENCODER         : Lavc61.19.100 libx265
        BPS             : 1719474
        DURATION        : 00:23:22.150708333
        NUMBER_OF_FRAMES: 33618
        NUMBER_OF_BYTES : 301370182
        _STATISTICS_WRITING_APP: mkvpropedit v66.0.0 ('Josie') 64-bit
        _STATISTICS_WRITING_DATE_UTC: 2025-05-29 09:22:23
        _STATISTICS_TAGS: BPS DURATION NUMBER_OF_FRAMES NUMBER_OF_BYTES
  Stream #0:1(eng): Audio: aac (LC), 48000 Hz, stereo, fltp (default)
      Metadata:
        HANDLER_NAME    : SoundHandler
        VENDOR_ID       : [0][0][0][0]
        ENCODER         : Lavc61.19.100 aac
        BPS             : 193316
        DURATION        : 00:23:22.221000000
        NUMBER_OF_FRAMES: 65730
        NUMBER_OF_BYTES : 33884054
        _STATISTICS_WRITING_APP: mkvpropedit v66.0.0 ('Josie') 64-bit
        _STATISTICS_WRITING_DATE_UTC: 2025-05-29 09:22:23
        _STATISTICS_TAGS: BPS DURATION NUMBER_OF_FRAMES NUMBER_OF_BYTES
Input #1, mov,mp4,m4a,3gp,3g2,mj2, from 'G:\Аниме\Онгоинги\!_36_Осень_2024\JamClub\Ты - горничная\JamClub_Kimi_wa_Meido_sama_01_1080p.mp4':
  Metadata:
    major_brand     : isom
    minor_version   : 512
    compatible_brands: isomiso2avc1mp41
    encoder         : Lavf60.16.100
  Duration: 00:23:22.22, start: 0.000000, bitrate: 4338 kb/s
  Stream #1:0[0x1](und): Video: h264 (High) (avc1 / 0x31637661), yuv420p(tv, bt709, progressive), 1920x1080 [SAR 1:1 DAR 16:9], 4140 kb/s, 23.98 fps, 23.98 tbr, 90k tbn (default)
      Metadata:
        handler_name    : VideoHandler
        vendor_id       : [0][0][0][0]
  Stream #1:1[0x2](eng): Audio: aac (LC) (mp4a / 0x6134706D), 48000 Hz, stereo, fltp, 191 kb/s (default)
      Metadata:
        handler_name    : SoundHandler
        vendor_id       : [0][0][0][0]
Stream mapping:
  Stream #0:0 (hevc) -> settb:default
  Stream #1:0 (h264) -> settb:default
  ssim:default -> Stream #0:0 (wrapped_avframe)
  Stream #0:1 -> #0:1 (aac (native) -> pcm_s16le (native))
Output #0, null, to 'pipe:':
  Metadata:
    COMPATIBLE_BRANDS: isomiso2avc1mp41
    MAJOR_BRAND     : isom
    MINOR_VERSION   : 512
    encoder         : Lavf61.7.100
  Stream #0:0: Video: wrapped_avframe, yuv420p10le(tv, bt709, progressive), 1920x1080 [SAR 1:1 DAR 16:9], q=2-31, 200 kb/s, 23.98 fps, 23.98 tbn
      Metadata:
        encoder         : Lavc61.19.100 wrapped_avframe
  Stream #0:1(eng): Audio: pcm_s16le, 48000 Hz, stereo, s16, 1536 kb/s (default)
      Metadata:
        HANDLER_NAME    : SoundHandler
        VENDOR_ID       : [0][0][0][0]
        _STATISTICS_TAGS: BPS DURATION NUMBER_OF_FRAMES NUMBER_OF_BYTES
        BPS             : 193316
        DURATION        : 00:23:22.221000000
        NUMBER_OF_FRAMES: 65730
        NUMBER_OF_BYTES : 33884054
        _STATISTICS_WRITING_APP: mkvpropedit v66.0.0 ('Josie') 64-bit
        _STATISTICS_WRITING_DATE_UTC: 2025-05-29 09:22:23
        encoder         : Lavc61.19.100 pcm_s16le
frame=  105 fps=0.0 q=-0.0 size=N/A time=00:00:04.37 bitrate=N/A speed=8.62x    frame=  255 fps=250 q=-0.0 size=N/A time=00:00:10.63 bitrate=N/A speed=10.4x    frame=  437 fps=285 q=-0.0 size=N/A time=00:00:18.22 bitrate=N/A speed=11.9x    frame=  676 fps=329 q=-0.0 size=N/A time=00:00:28.19 bitrate=N/A speed=13.7x    frame=  893 fps=348 q=-0.0 size=N/A time=00:00:37.24 bitrate=N/A speed=14.5x    frame= 1147 fps=371 q=-0.0 size=N/A time=00:00:47.83 bitrate=N/A speed=15.5x    frame= 1390 fps=386 q=-0.0 size=N/A time=00:00:57.97 bitrate=N/A speed=16.1x    frame= 1622 fps=394 q=-0.0 size=N/A time=00:01:07.65 bitrate=N/A speed=16.4x    frame= 1881 fps=406 q=-0.0 size=N/A time=00:01:18.45 bitrate=N/A speed=16.9x    frame= 2161 fps=419 q=-0.0 size=N/A time=00:01:30.13 bitrate=N/A speed=17.5x    frame= 2384 fps=420 q=-0.0 size=N/A time=00:01:39.43 bitrate=N/A speed=17.5x    frame= 2625 fps=425 q=-0.0 size=N/A time=00:01:49.48 bitrate=N/A speed=17.7x    frame= 2852 fps=426 q=-0.0 size=N/A time=00:01:58.95 bitrate=N/A speed=17.8x    frame= 3047 fps=423 q=-0.0 size=N/A time=00:02:07.08 bitrate=N/A speed=17.6x    frame= 3231 fps=418 q=-0.0 size=N/A time=00:02:14.75 bitrate=N/A speed=17.4x    frame= 3406 fps=413 q=-0.0 size=N/A time=00:02:22.05 bitrate=N/A speed=17.2x    frame= 3503 fps=400 q=-0.0 size=N/A time=00:02:26.10 bitrate=N/A speed=16.7x    frame= 3610 fps=390 q=-0.0 size=N/A time=00:02:30.56 bitrate=N/A speed=16.2x    frame= 3748 fps=383 q=-0.0 size=N/A time=00:02:36.32 bitrate=N/A speed=  16x    frame= 3865 fps=375 q=-0.0 size=N/A time=00:02:41.20 bitrate=N/A speed=15.6x    frame= 4002 fps=370 q=-0.0 size=N/A time=00:02:46.91 bitrate=N/A speed=15.4x    frame= 4176 fps=368 q=-0.0 size=N/A time=00:02:54.17 bitrate=N/A speed=15.4x    frame= 4367 fps=368 q=-0.0 size=N/A time=00:03:02.14 bitrate=N/A speed=15.4x    frame= 4562 fps=369 q=-0.0 size=N/A time=00:03:10.27 bitrate=N/A speed=15.4x    frame= 4731 fps=367 q=-0.0 size=N/A time=00:03:17.32 bitrate=N/A speed=15.3x    frame= 4962 fps=370 q=-0.0 size=N/A time=00:03:26.95 bitrate=N/A speed=15.4x    frame= 5229 fps=376 q=-0.0 size=N/A time=00:03:38.09 bitrate=N/A speed=15.7x    frame= 5489 fps=380 q=-0.0 size=N/A time=00:03:48.93 bitrate=N/A speed=15.9x    frame= 5756 fps=385 q=-0.0 size=N/A time=00:04:00.07 bitrate=N/A speed=16.1x    frame= 5986 fps=387 q=-0.0 size=N/A time=00:04:09.66 bitrate=N/A speed=16.2x    frame= 6226 fps=390 q=-0.0 size=N/A time=00:04:19.67 bitrate=N/A speed=16.2x    frame= 6469 fps=392 q=-0.0 size=N/A time=00:04:29.81 bitrate=N/A speed=16.4x    frame= 6727 fps=395 q=-0.0 size=N/A time=00:04:40.57 bitrate=N/A speed=16.5x    frame= 6945 fps=396 q=-0.0 size=N/A time=00:04:49.66 bitrate=N/A speed=16.5x    frame= 7207 fps=399 q=-0.0 size=N/A time=00:05:00.59 bitrate=N/A speed=16.7x    frame= 7436 fps=401 q=-0.0 size=N/A time=00:05:10.14 bitrate=N/A speed=16.7x    frame= 7657 fps=401 q=-0.0 size=N/A time=00:05:19.36 bitrate=N/A speed=16.7x    frame= 7899 fps=403 q=-0.0 size=N/A time=00:05:29.45 bitrate=N/A speed=16.8x    frame= 8146 fps=405 q=-0.0 size=N/A time=00:05:39.75 bitrate=N/A speed=16.9x    frame= 8422 fps=408 q=-0.0 size=N/A time=00:05:51.26 bitrate=N/A speed=  17x    frame= 8688 fps=411 q=-0.0 size=N/A time=00:06:02.36 bitrate=N/A speed=17.2x    frame= 8951 fps=413 q=-0.0 size=N/A time=00:06:13.33 bitrate=N/A speed=17.2x    frame= 9178 fps=414 q=-0.0 size=N/A time=00:06:22.79 bitrate=N/A speed=17.3x    frame= 9429 fps=416 q=-0.0 size=N/A time=00:06:33.26 bitrate=N/A speed=17.3x    frame= 9691 fps=418 q=-0.0 size=N/A time=00:06:44.19 bitrate=N/A speed=17.4x    frame= 9942 fps=419 q=-0.0 size=N/A time=00:06:54.66 bitrate=N/A speed=17.5x    frame=10111 fps=417 q=-0.0 size=N/A time=00:07:01.71 bitrate=N/A speed=17.4x    frame=10329 fps=417 q=-0.0 size=N/A time=00:07:10.80 bitrate=N/A speed=17.4x    frame=10566 fps=418 q=-0.0 size=N/A time=00:07:20.69 bitrate=N/A speed=17.5x    frame=10786 fps=418 q=-0.0 size=N/A time=00:07:29.86 bitrate=N/A speed=17.5x    frame=11039 fps=420 q=-0.0 size=N/A time=00:07:40.41 bitrate=N/A speed=17.5x    frame=11280 fps=421 q=-0.0 size=N/A time=00:07:50.47 bitrate=N/A speed=17.5x    frame=11534 fps=422 q=-0.0 size=N/A time=00:08:01.06 bitrate=N/A speed=17.6x    frame=11776 fps=423 q=-0.0 size=N/A time=00:08:11.15 bitrate=N/A speed=17.6x    frame=12012 fps=424 q=-0.0 size=N/A time=00:08:21.00 bitrate=N/A speed=17.7x    frame=12237 fps=424 q=-0.0 size=N/A time=00:08:30.38 bitrate=N/A speed=17.7x    frame=12468 fps=424 q=-0.0 size=N/A time=00:08:40.01 bitrate=N/A speed=17.7x    frame=12706 fps=425 q=-0.0 size=N/A time=00:08:49.94 bitrate=N/A speed=17.7x    frame=12951 fps=426 q=-0.0 size=N/A time=00:09:00.16 bitrate=N/A speed=17.8x    frame=13189 fps=426 q=-0.0 size=N/A time=00:09:10.09 bitrate=N/A speed=17.8x    frame=13443 fps=427 q=-0.0 size=N/A time=00:09:20.68 bitrate=N/A speed=17.8x    frame=13697 fps=428 q=-0.0 size=N/A time=00:09:31.27 bitrate=N/A speed=17.9x    frame=13934 fps=429 q=-0.0 size=N/A time=00:09:41.16 bitrate=N/A speed=17.9x    frame=14161 fps=429 q=-0.0 size=N/A time=00:09:50.63 bitrate=N/A speed=17.9x    frame=14355 fps=428 q=-0.0 size=N/A time=00:09:58.72 bitrate=N/A speed=17.9x    frame=14581 fps=428 q=-0.0 size=N/A time=00:10:08.14 bitrate=N/A speed=17.9x    frame=14819 fps=429 q=-0.0 size=N/A time=00:10:18.07 bitrate=N/A speed=17.9x    frame=15064 fps=430 q=-0.0 size=N/A time=00:10:28.29 bitrate=N/A speed=17.9x    frame=15317 fps=430 q=-0.0 size=N/A time=00:10:38.84 bitrate=N/A speed=  18x    frame=15593 fps=432 q=-0.0 size=N/A time=00:10:50.35 bitrate=N/A speed=  18x    frame=15830 fps=432 q=-0.0 size=N/A time=00:11:00.24 bitrate=N/A speed=  18x    frame=16079 fps=433 q=-0.0 size=N/A time=00:11:10.62 bitrate=N/A speed=18.1x    frame=16344 fps=434 q=-0.0 size=N/A time=00:11:21.68 bitrate=N/A speed=18.1x    frame=16602 fps=435 q=-0.0 size=N/A time=00:11:32.44 bitrate=N/A speed=18.1x    frame=16832 fps=435 q=-0.0 size=N/A time=00:11:42.03 bitrate=N/A speed=18.2x    frame=17096 fps=436 q=-0.0 size=N/A time=00:11:53.04 bitrate=N/A speed=18.2x    frame=17325 fps=436 q=-0.0 size=N/A time=00:12:02.59 bitrate=N/A speed=18.2x    frame=17599 fps=437 q=-0.0 size=N/A time=00:12:14.02 bitrate=N/A speed=18.2x    frame=17834 fps=438 q=-0.0 size=N/A time=00:12:23.82 bitrate=N/A speed=18.3x    frame=18061 fps=438 q=-0.0 size=N/A time=00:12:33.29 bitrate=N/A speed=18.3x    frame=18282 fps=438 q=-0.0 size=N/A time=00:12:42.51 bitrate=N/A speed=18.3x    frame=18565 fps=439 q=-0.0 size=N/A time=00:12:54.31 bitrate=N/A speed=18.3x    frame=18822 fps=440 q=-0.0 size=N/A time=00:13:05.03 bitrate=N/A speed=18.3x    frame=19078 fps=440 q=-0.0 size=N/A time=00:13:15.71 bitrate=N/A speed=18.4x    frame=19327 fps=441 q=-0.0 size=N/A time=00:13:26.09 bitrate=N/A speed=18.4x    frame=19606 fps=442 q=-0.0 size=N/A time=00:13:37.73 bitrate=N/A speed=18.4x    frame=19832 fps=442 q=-0.0 size=N/A time=00:13:47.15 bitrate=N/A speed=18.4x    frame=20098 fps=443 q=-0.0 size=N/A time=00:13:58.25 bitrate=N/A speed=18.5x    frame=20337 fps=443 q=-0.0 size=N/A time=00:14:08.22 bitrate=N/A speed=18.5x    frame=20571 fps=443 q=-0.0 size=N/A time=00:14:17.98 bitrate=N/A speed=18.5x    frame=20840 fps=444 q=-0.0 size=N/A time=00:14:29.20 bitrate=N/A speed=18.5x    frame=21082 fps=444 q=-0.0 size=N/A time=00:14:39.29 bitrate=N/A speed=18.5x    frame=21345 fps=445 q=-0.0 size=N/A time=00:14:50.26 bitrate=N/A speed=18.6x    frame=21586 fps=445 q=-0.0 size=N/A time=00:15:00.31 bitrate=N/A speed=18.6x    frame=21844 fps=446 q=-0.0 size=N/A time=00:15:11.07 bitrate=N/A speed=18.6x    frame=22116 fps=447 q=-0.0 size=N/A time=00:15:22.42 bitrate=N/A speed=18.6x    frame=22389 fps=448 q=-0.0 size=N/A time=00:15:33.80 bitrate=N/A speed=18.7x    frame=22561 fps=446 q=-0.0 size=N/A time=00:15:40.98 bitrate=N/A speed=18.6x    frame=22815 fps=447 q=-0.0 size=N/A time=00:15:51.61 bitrate=N/A speed=18.6x    frame=23072 fps=447 q=-0.0 size=N/A time=00:16:02.29 bitrate=N/A speed=18.7x    frame=23295 fps=447 q=-0.0 size=N/A time=00:16:11.59 bitrate=N/A speed=18.7x    frame=23538 fps=447 q=-0.0 size=N/A time=00:16:21.73 bitrate=N/A speed=18.7x    frame=23791 fps=448 q=-0.0 size=N/A time=00:16:32.28 bitrate=N/A speed=18.7x    frame=24058 fps=449 q=-0.0 size=N/A time=00:16:43.41 bitrate=N/A speed=18.7x    frame=24318 fps=449 q=-0.0 size=N/A time=00:16:54.26 bitrate=N/A speed=18.7x    frame=24587 fps=450 q=-0.0 size=N/A time=00:17:05.48 bitrate=N/A speed=18.8x    frame=24850 fps=450 q=-0.0 size=N/A time=00:17:16.45 bitrate=N/A speed=18.8x    frame=25112 fps=451 q=-0.0 size=N/A time=00:17:27.37 bitrate=N/A speed=18.8x    frame=25338 fps=451 q=-0.0 size=N/A time=00:17:36.80 bitrate=N/A speed=18.8x    frame=25585 fps=451 q=-0.0 size=N/A time=00:17:47.10 bitrate=N/A speed=18.8x    frame=25831 fps=451 q=-0.0 size=N/A time=00:17:57.36 bitrate=N/A speed=18.8x    frame=26096 fps=452 q=-0.0 size=N/A time=00:18:08.42 bitrate=N/A speed=18.8x    frame=26366 fps=452 q=-0.0 size=N/A time=00:18:19.68 bitrate=N/A speed=18.9x    frame=26636 fps=453 q=-0.0 size=N/A time=00:18:30.94 bitrate=N/A speed=18.9x    frame=26880 fps=453 q=-0.0 size=N/A time=00:18:41.12 bitrate=N/A speed=18.9x    frame=27138 fps=454 q=-0.0 size=N/A time=00:18:51.88 bitrate=N/A speed=18.9x    frame=27401 fps=454 q=-0.0 size=N/A time=00:19:02.85 bitrate=N/A speed=18.9x    frame=27644 fps=454 q=-0.0 size=N/A time=00:19:12.98 bitrate=N/A speed=18.9x    frame=27909 fps=455 q=-0.0 size=N/A time=00:19:24.03 bitrate=N/A speed=  19x    frame=28127 fps=455 q=-0.0 size=N/A time=00:19:33.13 bitrate=N/A speed=  19x    frame=28370 fps=455 q=-0.0 size=N/A time=00:19:43.26 bitrate=N/A speed=  19x    frame=28626 fps=455 q=-0.0 size=N/A time=00:19:53.94 bitrate=N/A speed=  19x    frame=28899 fps=456 q=-0.0 size=N/A time=00:20:05.32 bitrate=N/A speed=  19x    frame=29118 fps=455 q=-0.0 size=N/A time=00:20:14.46 bitrate=N/A speed=  19x    frame=29386 fps=456 q=-0.0 size=N/A time=00:20:25.64 bitrate=N/A speed=  19x    frame=29638 fps=456 q=-0.0 size=N/A time=00:20:36.15 bitrate=N/A speed=  19x    frame=29907 fps=457 q=-0.0 size=N/A time=00:20:47.37 bitrate=N/A speed=  19x    frame=30155 fps=457 q=-0.0 size=N/A time=00:20:57.71 bitrate=N/A speed=19.1x    frame=30391 fps=457 q=-0.0 size=N/A time=00:21:07.55 bitrate=N/A speed=19.1x    frame=30639 fps=457 q=-0.0 size=N/A time=00:21:17.90 bitrate=N/A speed=19.1x    frame=30893 fps=457 q=-0.0 size=N/A time=00:21:28.49 bitrate=N/A speed=19.1x    frame=31159 fps=458 q=-0.0 size=N/A time=00:21:39.58 bitrate=N/A speed=19.1x    frame=31396 fps=458 q=-0.0 size=N/A time=00:21:49.47 bitrate=N/A speed=19.1x    frame=31534 fps=456 q=-0.0 size=N/A time=00:21:55.23 bitrate=N/A speed=  19x    frame=31637 fps=454 q=-0.0 size=N/A time=00:21:59.52 bitrate=N/A speed=  19x    frame=31748 fps=453 q=-0.0 size=N/A time=00:22:04.15 bitrate=N/A speed=18.9x    frame=31879 fps=451 q=-0.0 size=N/A time=00:22:09.61 bitrate=N/A speed=18.8x    frame=32031 fps=450 q=-0.0 size=N/A time=00:22:15.95 bitrate=N/A speed=18.8x    frame=32173 fps=449 q=-0.0 size=N/A time=00:22:21.88 bitrate=N/A speed=18.7x    frame=32317 fps=448 q=-0.0 size=N/A time=00:22:27.88 bitrate=N/A speed=18.7x    frame=32432 fps=446 q=-0.0 size=N/A time=00:22:32.68 bitrate=N/A speed=18.6x    frame=32537 fps=444 q=-0.0 size=N/A time=00:22:37.06 bitrate=N/A speed=18.5x    frame=32663 fps=443 q=-0.0 size=N/A time=00:22:42.31 bitrate=N/A speed=18.5x    frame=32807 fps=442 q=-0.0 size=N/A time=00:22:48.32 bitrate=N/A speed=18.4x    frame=32944 fps=441 q=-0.0 size=N/A time=00:22:54.03 bitrate=N/A speed=18.4x    frame=33078 fps=439 q=-0.0 size=N/A time=00:22:59.62 bitrate=N/A speed=18.3x    frame=33214 fps=438 q=-0.0 size=N/A time=00:23:05.30 bitrate=N/A speed=18.3x    frame=33335 fps=437 q=-0.0 size=N/A time=00:23:10.34 bitrate=N/A speed=18.2x    frame=33433 fps=435 q=-0.0 size=N/A time=00:23:14.43 bitrate=N/A speed=18.1x    frame=33548 fps=434 q=-0.0 size=N/A time=00:23:19.23 bitrate=N/A speed=18.1x    [Parsed_ssim_10 @ 000001208b363740] SSIM Y:0.994362 (22.488634) U:0.995338 (23.314008) V:0.995722 (23.687216) All:0.994751 (22.799336)
[out#0/null @ 000001208b864ec0] video:14445KiB audio:262920KiB subtitle:0KiB other streams:0KiB global headers:0KiB muxing overhead: unknown
frame=33618 fps=433 q=-0.0 Lsize=N/A time=00:23:22.15 bitrate=N/A speed=  18x    
